<svg width="1360" height="400" viewBox="0 0 1360 400" fill="none" xmlns="http://www.w3.org/2000/svg">
<g filter="url(#filter0_b_13_392)">
<path d="M0 15.999C0 7.16248 7.16344 -0.000976562 16 -0.000976562H393.372C397.616 -0.000976562 401.686 1.68479 404.686 4.68545L415.314 15.3131C418.314 18.3137 422.384 19.9995 426.628 19.9995H680H933.372C937.616 19.9995 941.686 18.3137 944.686 15.3131L955.314 4.68545C958.314 1.68479 962.384 -0.000976562 966.628 -0.000976562H1344C1352.84 -0.000976562 1360 7.16247 1360 15.999V383.999C1360 392.836 1352.84 399.999 1344 399.999H16C7.16344 399.999 0 392.836 0 383.999V15.999Z" fill="white" fill-opacity="0.06"/>
<path d="M0 15.999C0 7.16248 7.16344 -0.000976562 16 -0.000976562H393.372C397.616 -0.000976562 401.686 1.68479 404.686 4.68545L415.314 15.3131C418.314 18.3137 422.384 19.9995 426.628 19.9995H680H933.372C937.616 19.9995 941.686 18.3137 944.686 15.3131L955.314 4.68545C958.314 1.68479 962.384 -0.000976562 966.628 -0.000976562H1344C1352.84 -0.000976562 1360 7.16247 1360 15.999V383.999C1360 392.836 1352.84 399.999 1344 399.999H16C7.16344 399.999 0 392.836 0 383.999V15.999Z" stroke="white" stroke-opacity="0.1"/>
</g>
<defs>
<filter id="filter0_b_13_392" x="-64.5" y="-64.501" width="1489" height="529" filterUnits="userSpaceOnUse" color-interpolation-filters="sRGB">
<feFlood flood-opacity="0" result="BackgroundImageFix"/>
<feGaussianBlur in="BackgroundImageFix" stdDeviation="32"/>
<feComposite in2="SourceAlpha" operator="in" result="effect1_backgroundBlur_13_392"/>
<feBlend mode="normal" in="SourceGraphic" in2="effect1_backgroundBlur_13_392" result="shape"/>
</filter>
</defs>
</svg>
