<svg width="1360" height="949" viewBox="0 0 1360 949" fill="none" xmlns="http://www.w3.org/2000/svg">
<path fill-rule="evenodd" clip-rule="evenodd" d="M446.297 89.124C446.297 85.8139 446.297 84.159 446.336 82.7594C447.585 37.703 478.189 1.5208 516.302 0.0458094C517.484 0 518.887 0 521.685 0H571.743C612.274 0 632.542 0 648.023 9.32536C661.641 17.5282 672.711 30.6171 679.65 46.7159C687.539 65.0181 687.539 88.9767 687.539 136.894V163.988C687.539 197.172 687.539 213.763 683.697 227.14C676.466 252.327 659.736 272.106 638.431 280.656C627.114 285.197 613.08 285.197 585.011 285.197H530.732C504.084 285.197 482.483 310.734 482.483 342.236C482.483 373.74 504.084 399.275 530.732 399.275H687.539H705.632H812.984C853.516 399.275 873.783 399.275 889.265 408.601C902.883 416.804 913.953 429.891 920.892 445.991C928.78 464.293 928.78 488.253 928.78 536.17V547.578C928.78 595.494 928.78 619.454 920.892 637.757C913.953 653.856 902.883 666.943 889.265 675.146C873.783 684.472 853.516 684.472 812.984 684.472H705.632H687.539H643.814C617.154 684.472 603.825 684.472 593.026 688.572C570.811 697.013 553.402 717.594 546.262 743.857C542.794 756.623 542.794 772.38 542.794 803.898C542.794 835.416 542.794 851.173 539.326 863.939C532.185 890.202 514.777 910.783 492.561 919.225C481.763 923.324 468.434 923.324 441.774 923.324H417.348C376.816 923.324 356.549 923.324 341.068 913.998C327.449 905.795 316.379 892.708 309.441 876.609C301.552 858.306 301.552 834.346 301.552 786.43V734.381C301.552 724.449 301.552 719.483 301.902 715.302C305.285 674.679 332.47 642.541 366.832 638.541C370.369 638.128 374.57 638.128 382.971 638.128H390.51C391.909 638.128 392.609 638.128 393.203 638.117C432.245 637.361 463.742 600.125 464.381 553.97C464.39 553.267 464.39 552.44 464.39 550.786C464.39 549.132 464.39 548.305 464.381 547.603C463.742 501.447 432.245 464.211 393.203 463.455C392.609 463.445 391.909 463.445 390.51 463.445H241.242H115.796C75.2644 463.445 54.9971 463.445 39.5154 454.119C25.8973 445.916 14.8273 432.829 7.88855 416.729C0 398.427 0 374.467 0 326.55V315.142C0 267.225 0 243.266 7.88855 224.964C14.8273 208.865 25.8973 195.776 39.5154 187.573C54.9971 178.248 75.2644 178.248 115.796 178.248H241.242H370.909C373.708 178.248 375.11 178.248 376.292 178.202C414.405 176.727 445.01 140.545 446.258 95.4885C446.297 94.0889 446.297 92.434 446.297 89.124ZM1118.76 538.309C1118.76 501.786 1118.76 483.526 1123.4 468.956C1130.74 445.898 1146.13 427.699 1165.64 419.018C1177.96 413.535 1193.41 413.535 1224.3 413.535H1244.2C1284.74 413.535 1305 413.535 1320.48 422.861C1334.1 431.064 1345.17 444.151 1352.11 460.25C1360 478.553 1360 502.513 1360 550.43V607.825C1360 612.791 1360 615.273 1359.91 617.372C1358.09 661.325 1328.36 696.468 1291.18 698.628C1289.4 698.732 1287.3 698.732 1283.1 698.732C1278.9 698.732 1276.8 698.732 1275.03 698.835C1237.85 700.996 1208.12 736.139 1206.3 780.091C1206.21 782.191 1206.21 784.672 1206.21 789.638V823.505C1206.21 860.028 1206.21 878.288 1201.57 892.858C1194.23 915.916 1178.83 934.115 1159.33 942.796C1147 948.279 1131.56 948.279 1100.67 948.279H1080.76C1040.23 948.279 1019.96 948.279 1004.48 938.953C990.864 930.75 979.794 917.663 972.855 901.564C964.967 883.261 964.967 859.301 964.967 811.385V753.989C964.967 749.023 964.967 746.542 965.054 744.442C966.882 700.489 996.609 665.346 1033.79 663.186C1035.56 663.082 1037.66 663.082 1041.86 663.082C1046.06 663.082 1048.16 663.082 1049.94 662.979C1087.11 660.818 1116.84 625.675 1118.67 581.723C1118.76 579.623 1118.76 577.142 1118.76 572.176V538.309Z" fill="white" fill-opacity="0.05"/>
</svg>
