<svg width="1176" height="792" viewBox="0 0 1176 792" fill="none" xmlns="http://www.w3.org/2000/svg">
<path fill-rule="evenodd" clip-rule="evenodd" d="M386.39 75.0273C386.39 72.2666 386.39 70.8864 386.424 69.7191C387.502 32.141 413.938 1.96419 446.859 0.734007C447.88 0.695801 449.091 0.695801 451.508 0.695801H494.746C529.756 0.695801 547.263 0.695801 560.635 8.47337C572.398 15.3147 581.96 26.2312 587.954 39.658C594.768 54.9224 594.768 74.9045 594.768 114.869V137.466C594.768 165.142 594.768 178.98 591.449 190.136C585.203 211.143 570.752 227.639 552.35 234.77C542.574 238.557 530.452 238.557 506.207 238.557H459.322C436.304 238.557 417.647 259.855 417.647 286.129C417.647 312.403 436.304 333.701 459.322 333.701H594.768H610.396H703.124C738.134 333.701 755.64 333.701 769.013 341.479C780.776 348.32 790.338 359.235 796.331 372.663C803.145 387.927 803.145 407.911 803.145 447.874V457.389C803.145 497.352 803.145 517.335 796.331 532.6C790.338 546.027 780.776 556.942 769.013 563.784C755.64 571.562 738.134 571.562 703.124 571.562H610.396H594.768H556.999C533.971 571.562 522.458 571.562 513.131 574.981C493.942 582.022 478.904 599.186 472.737 621.09C469.741 631.738 469.741 644.879 469.741 671.166C469.741 697.453 469.741 710.594 466.746 721.242C460.578 743.146 445.541 760.31 426.352 767.351C417.024 770.77 405.511 770.77 382.483 770.77H361.385C326.375 770.77 308.868 770.77 295.496 762.992C283.733 756.151 274.171 745.236 268.177 731.809C261.364 716.544 261.364 696.561 261.364 656.597V613.187C261.364 604.904 261.364 600.762 261.666 597.274C264.588 563.394 288.07 536.59 317.751 533.254C320.806 532.909 324.434 532.909 331.691 532.909H338.203C339.411 532.909 340.016 532.909 340.529 532.9C374.252 532.27 401.458 501.214 402.011 462.72C402.018 462.134 402.018 461.444 402.018 460.064C402.018 458.685 402.018 457.995 402.011 457.409C401.458 418.915 374.252 387.859 340.529 387.229C340.016 387.22 339.411 387.22 338.203 387.22H209.269H100.913C65.9027 387.22 48.3964 387.22 35.0238 379.442C23.2609 372.6 13.699 361.685 7.7055 348.258C0.891553 332.993 0.89156 313.01 0.89156 273.046V263.532C0.89156 223.568 0.891553 203.585 7.7055 188.321C13.699 174.894 23.2609 163.978 35.0238 157.136C48.3964 149.359 65.9027 149.359 100.913 149.359H209.269H321.272C323.689 149.359 324.9 149.359 325.922 149.321C358.843 148.09 385.278 117.914 386.356 80.3355C386.39 79.1682 386.39 77.788 386.39 75.0273ZM967.243 449.658C967.243 419.197 967.243 403.968 971.249 391.816C977.591 372.585 990.887 357.407 1007.74 350.167C1018.38 345.594 1031.72 345.594 1058.41 345.594H1075.6C1110.61 345.594 1128.11 345.594 1141.49 353.372C1153.25 360.213 1162.81 371.128 1168.81 384.556C1175.62 399.82 1175.62 419.804 1175.62 459.767V507.637C1175.62 511.778 1175.62 513.848 1175.54 515.599C1173.97 552.256 1148.29 581.567 1116.17 583.369C1114.64 583.455 1112.83 583.455 1109.2 583.455C1105.57 583.455 1103.76 583.455 1102.23 583.541C1070.11 585.343 1044.43 614.653 1042.85 651.311C1042.78 653.062 1042.78 655.131 1042.78 659.273V687.519C1042.78 717.98 1042.78 733.209 1038.77 745.361C1032.43 764.592 1019.13 779.77 1002.29 787.01C991.641 791.583 978.299 791.583 951.614 791.583H934.423C899.413 791.583 881.907 791.583 868.534 783.805C856.771 776.963 847.209 766.049 841.216 752.621C834.402 737.357 834.402 717.373 834.402 677.41V629.54C834.402 625.399 834.402 623.329 834.477 621.578C836.056 584.921 861.733 555.61 893.847 553.808C895.381 553.722 897.194 553.722 900.822 553.722C904.451 553.722 906.263 553.722 907.798 553.636C939.91 551.834 965.59 522.524 967.167 485.866C967.243 484.115 967.243 482.046 967.243 477.904V449.658Z" fill="white" fill-opacity="0.05"/>
</svg>
