<svg width="204" height="42" viewBox="0 0 204 42" fill="none" xmlns="http://www.w3.org/2000/svg">
<g>
<path opacity="1" d="M146.248 31.7125C147.318 30.0491 148.094 28.3669 148.566 26.6663L148.813 25.7789H147.892H138.775H138.279L138.114 26.2464C137.834 27.0411 137.438 27.761 136.926 28.4095L136.925 28.4108C136.423 29.0479 135.827 29.5921 135.133 30.0445C134.441 30.4957 133.66 30.8465 132.784 31.0935C131.924 31.3275 130.981 31.4473 129.95 31.4473C128.389 31.4473 127.164 31.0835 126.224 30.4074C125.296 29.7283 124.629 28.6978 124.258 27.2468C123.899 25.7951 123.882 23.9319 124.251 21.629C124.655 19.2539 125.357 17.2461 126.341 15.59C127.327 13.931 128.537 12.684 129.964 11.8243C131.386 10.9669 132.975 10.5347 134.747 10.5347C135.672 10.5347 136.453 10.6643 137.103 10.906C137.752 11.1475 138.28 11.4978 138.7 11.9525L138.705 11.9582C139.127 12.4046 139.441 12.947 139.644 13.5987L139.645 13.6018C139.847 14.2406 139.933 14.9909 139.888 15.8639L139.85 16.6002H140.587H149.631H150.29L150.33 15.9426C150.469 13.651 150.206 11.583 149.518 9.75363C148.847 7.9325 147.815 6.3868 146.422 5.12885C145.036 3.86381 143.354 2.91498 141.393 2.27416C139.442 1.62081 137.261 1.29999 134.857 1.29999C131.517 1.29999 128.365 2.02795 125.412 3.48426L125.41 3.48479C122.458 4.9466 119.956 7.0999 117.904 9.92924L117.903 9.9309C115.852 12.7779 114.493 16.2594 113.808 20.3518V20.3534C113.111 24.5741 113.311 28.2323 114.466 31.2931L114.467 31.2964C115.629 34.331 117.526 36.6716 120.155 38.2859L120.157 38.2867C122.787 39.8934 125.896 40.682 129.456 40.682C132.055 40.682 134.435 40.2794 136.588 39.4631C138.717 38.6557 140.598 37.577 142.225 36.2236C143.838 34.8814 145.181 33.3783 146.247 31.7136M8.22424 1.80545H7.63225L7.53396 2.38923L1.30931 39.3603L1.17188 40.1765H1.99959H10.824H11.415L11.5141 39.5938L14.9406 19.433L19.5337 39.3987L19.6586 39.9418H20.2159H25.8364H26.2436L26.4449 39.5878L37.7096 19.7757L34.4098 39.3602L34.2723 40.1765H35.1001H43.9245H44.5165L44.6148 39.5927L50.8394 2.62167L50.9768 1.80545H50.1491H38.9264H38.5246L38.3219 2.15251L25.5179 24.0824L20.1264 2.337L19.9946 1.80545H19.4469H8.22424ZM55.6252 40.1765H56.0628L56.2545 39.7831L59.8448 32.414H71.7523L72.8195 39.5796L72.9084 40.1765H73.5119H83.2517H84.0838L83.9413 39.3566L77.5153 2.38558L77.4144 1.80545H76.8256H64.7608H64.3322L64.1373 2.18716L45.262 39.1582L44.7421 40.1765H45.8854H55.6252ZM70.5327 24.2264H63.834L68.9644 13.6964L70.5327 24.2264ZM83.6073 9.64411L83.4669 10.4625H84.2972H94.8576L90.0146 39.3608L89.8779 40.1765H90.705H99.6392H100.232L100.33 39.5922L105.212 10.4625H115.988H116.579L116.678 9.88082L117.923 2.62381L118.064 1.80545H117.233H85.5421H84.952L84.8522 2.3871L83.6073 9.64411ZM148.128 39.3603L147.991 40.1765H148.818H157.881H158.473L158.571 39.5922L160.963 25.3195H174.318L171.965 39.3608L171.828 40.1765H172.655H181.699H182.291L182.389 39.5927L188.614 2.62167L188.752 1.80545H187.924H178.88H178.287L178.189 2.38962L175.798 16.6444H162.443L164.796 2.62129L164.933 1.80545H164.105H155.043H154.451L154.353 2.38923L148.128 39.3603ZM202.686 2.64263L202.854 1.80545H202H192.864H192.252L192.171 2.41188L188.711 28.0641L188.603 28.8577H189.404H196.874H197.448L197.56 28.2949L202.686 2.64263ZM186.529 35.2397L186.528 35.2475C186.403 36.7318 186.827 38.0354 187.809 39.1022C188.794 40.1717 190.072 40.7 191.583 40.7C192.527 40.7 193.431 40.4554 194.285 39.9798C195.131 39.5088 195.842 38.8751 196.414 38.0845C197.012 37.2739 197.358 36.3649 197.443 35.3701C197.583 33.8991 197.145 32.6087 196.136 31.556C195.148 30.5131 193.908 29.985 192.462 29.985C190.967 29.985 189.632 30.5029 188.484 31.5136C187.335 32.5252 186.669 33.7745 186.529 35.2397Z" stroke="white" stroke-width="1.4"/>
</g>
</svg>
